<svg xmlns="http://www.w3.org/2000/svg" xmlns:xlink="http://www.w3.org/1999/xlink" width="432" zoomAndPan="magnify" viewBox="0 0 324 161.999997" height="216" preserveAspectRatio="xMidYMid meet" version="1.2"><defs><clipPath id="36a711c40a"><path d="M 0 0 L 40.5 0 L 40.5 162 L 0 162 Z M 0 0 "/></clipPath><clipPath id="0bf0095c99"><path d="M 81 20.25 L 121.5 20.25 L 121.5 162 L 81 162 Z M 81 20.25 "/></clipPath><clipPath id="9c98bcf990"><path d="M 162 20.25 L 202.5 20.25 L 202.5 141.75 L 162 141.75 Z M 162 20.25 "/></clipPath><clipPath id="6e29ab7fac"><path d="M 40.5 81 L 81 81 L 81 91.125 L 40.5 91.125 Z M 40.5 81 "/></clipPath><clipPath id="eeab00182a"><path d="M 202.5 0 L 243 0 L 243 40.5 L 202.5 40.5 Z M 202.5 0 "/></clipPath><clipPath id="5da600a471"><path d="M 243 0 L 283.5 0 L 283.5 40.5 L 243 40.5 Z M 243 0 "/></clipPath><clipPath id="6ec800b8b3"><path d="M 202.5 121.5 L 243 121.5 L 243 162 L 202.5 162 Z M 202.5 121.5 "/></clipPath><clipPath id="63c1e8f1a7"><path d="M 243 121.5 L 283.5 121.5 L 283.5 162 L 243 162 Z M 243 121.5 "/></clipPath><clipPath id="80ae157562"><path d="M 283.5 40.5 L 303.75 40.5 L 303.75 60.75 L 283.5 60.75 Z M 283.5 40.5 "/></clipPath><clipPath id="0ec6c8febe"><path d="M 283.5 101.25 L 303.75 101.25 L 303.75 121.5 L 283.5 121.5 Z M 283.5 101.25 "/></clipPath><clipPath id="bab1c7c819"><path d="M 243 70.875 L 263.25 70.875 L 263.25 91.125 L 243 91.125 Z M 243 70.875 "/></clipPath><clipPath id="bd01921fe1"><path d="M 263.25 70.875 L 283.5 70.875 L 283.5 91.125 L 263.25 91.125 Z M 263.25 70.875 "/></clipPath><clipPath id="a56fbfc0f3"><path d="M 283.5 60.75 L 324 60.75 L 324 101.25 L 283.5 101.25 Z M 283.5 60.75 "/></clipPath><clipPath id="84a13d9495"><path d="M 40.5 70.875 L 50.625 70.875 L 50.625 81 L 40.5 81 Z M 40.5 70.875 "/></clipPath><clipPath id="4d853166a3"><path d="M 70.875 70.875 L 81 70.875 L 81 81 L 70.875 81 Z M 70.875 70.875 "/></clipPath><clipPath id="0bb54ebd38"><path d="M 65.8125 70.875 L 70.875 70.875 L 70.875 81 L 65.8125 81 Z M 65.8125 70.875 "/></clipPath><clipPath id="54089c5d7a"><path d="M 50.625 70.875 L 55.6875 70.875 L 55.6875 81 L 50.625 81 Z M 50.625 70.875 "/></clipPath><clipPath id="ea3775d2cd"><path d="M 55.6875 75.9375 L 65.8125 75.9375 L 65.8125 81 L 55.6875 81 Z M 55.6875 75.9375 "/></clipPath></defs><g id="5a757e7749"><g clip-rule="nonzero" clip-path="url(#36a711c40a)"><path style=" stroke:none;fill-rule:nonzero;fill:#000000;fill-opacity:1;" d="M 0 0 L 40.5 0 L 40.5 162 L 0 162 Z M 0 0 "/></g><g clip-rule="nonzero" clip-path="url(#0bf0095c99)"><path style=" stroke:none;fill-rule:nonzero;fill:#000000;fill-opacity:1;" d="M 81 20.25 L 121.5 20.25 L 121.5 162 L 81 162 Z M 81 20.25 "/></g><g clip-rule="nonzero" clip-path="url(#9c98bcf990)"><path style=" stroke:none;fill-rule:nonzero;fill:#000000;fill-opacity:1;" d="M 162 20.25 L 202.5 20.25 L 202.5 141.75 L 162 141.75 Z M 162 20.25 "/></g><g clip-rule="nonzero" clip-path="url(#6e29ab7fac)"><path style=" stroke:none;fill-rule:nonzero;fill:#000000;fill-opacity:1;" d="M 40.5 81 L 81 81 L 81 91.125 L 40.5 91.125 Z M 40.5 81 "/></g><g clip-rule="nonzero" clip-path="url(#eeab00182a)"><path style=" stroke:none;fill-rule:nonzero;fill:#000000;fill-opacity:1;" d="M 202.5 0 L 243 0 L 243 40.5 L 202.5 40.5 Z M 202.5 0 "/></g><g clip-rule="nonzero" clip-path="url(#5da600a471)"><path style=" stroke:none;fill-rule:nonzero;fill:#000000;fill-opacity:1;" d="M 243 0 L 283.5 0 L 283.5 40.5 L 243 40.5 Z M 243 0 "/></g><g clip-rule="nonzero" clip-path="url(#6ec800b8b3)"><path style=" stroke:none;fill-rule:nonzero;fill:#000000;fill-opacity:1;" d="M 202.5 121.5 L 243 121.5 L 243 162 L 202.5 162 Z M 202.5 121.5 "/></g><g clip-rule="nonzero" clip-path="url(#63c1e8f1a7)"><path style=" stroke:none;fill-rule:nonzero;fill:#000000;fill-opacity:1;" d="M 243 121.5 L 283.5 121.5 L 283.5 162 L 243 162 Z M 243 121.5 "/></g><g clip-rule="nonzero" clip-path="url(#80ae157562)"><path style=" stroke:none;fill-rule:nonzero;fill:#000000;fill-opacity:1;" d="M 283.5 40.5 L 303.75 40.5 L 303.75 60.75 L 283.5 60.75 Z M 283.5 40.5 "/></g><g clip-rule="nonzero" clip-path="url(#0ec6c8febe)"><path style=" stroke:none;fill-rule:nonzero;fill:#000000;fill-opacity:1;" d="M 283.5 101.25 L 303.75 101.25 L 303.75 121.5 L 283.5 121.5 Z M 283.5 101.25 "/></g><g clip-rule="nonzero" clip-path="url(#bab1c7c819)"><path style=" stroke:none;fill-rule:nonzero;fill:#000000;fill-opacity:1;" d="M 243 70.875 L 263.25 70.875 L 263.25 91.125 L 243 91.125 Z M 243 70.875 "/></g><g clip-rule="nonzero" clip-path="url(#bd01921fe1)"><path style=" stroke:none;fill-rule:nonzero;fill:#000000;fill-opacity:1;" d="M 263.25 70.875 L 283.5 70.875 L 283.5 91.125 L 263.25 91.125 Z M 263.25 70.875 "/></g><g clip-rule="nonzero" clip-path="url(#a56fbfc0f3)"><path style=" stroke:none;fill-rule:nonzero;fill:#000000;fill-opacity:1;" d="M 283.5 60.75 L 324 60.75 L 324 101.25 L 283.5 101.25 Z M 283.5 60.75 "/></g><g clip-rule="nonzero" clip-path="url(#84a13d9495)"><path style=" stroke:none;fill-rule:nonzero;fill:#000000;fill-opacity:1;" d="M 40.5 70.875 L 50.625 70.875 L 50.625 81 L 40.5 81 Z M 40.5 70.875 "/></g><g clip-rule="nonzero" clip-path="url(#4d853166a3)"><path style=" stroke:none;fill-rule:nonzero;fill:#000000;fill-opacity:1;" d="M 70.875 70.875 L 81 70.875 L 81 81 L 70.875 81 Z M 70.875 70.875 "/></g><g clip-rule="nonzero" clip-path="url(#0bb54ebd38)"><path style=" stroke:none;fill-rule:nonzero;fill:#000000;fill-opacity:1;" d="M 65.8125 70.875 L 70.875 70.875 L 70.875 81 L 65.8125 81 Z M 65.8125 70.875 "/></g><g clip-rule="nonzero" clip-path="url(#54089c5d7a)"><path style=" stroke:none;fill-rule:nonzero;fill:#000000;fill-opacity:1;" d="M 50.625 70.875 L 55.6875 70.875 L 55.6875 81 L 50.625 81 Z M 50.625 70.875 "/></g><g clip-rule="nonzero" clip-path="url(#ea3775d2cd)"><path style=" stroke:none;fill-rule:nonzero;fill:#000000;fill-opacity:1;" d="M 65.8125 75.9375 L 65.8125 81 L 55.6875 81 L 55.6875 75.9375 Z M 65.8125 75.9375 "/></g></g></svg>