<svg xmlns="http://www.w3.org/2000/svg" xmlns:xlink="http://www.w3.org/1999/xlink" width="432" zoomAndPan="magnify" viewBox="0 0 324 161.999997" height="216" preserveAspectRatio="xMidYMid meet" version="1.2"><defs><clipPath id="c1a1289f8d"><path d="M 0 0 L 40.5 0 L 40.5 162 L 0 162 Z M 0 0 "/></clipPath><clipPath id="6d51275d5d"><path d="M 81 20.25 L 121.5 20.25 L 121.5 162 L 81 162 Z M 81 20.25 "/></clipPath><clipPath id="5b3c41f1df"><path d="M 162 20.25 L 202.5 20.25 L 202.5 141.75 L 162 141.75 Z M 162 20.25 "/></clipPath><clipPath id="f5df948dbb"><path d="M 40.5 81 L 81 81 L 81 91.125 L 40.5 91.125 Z M 40.5 81 "/></clipPath><clipPath id="b3ae1da5ed"><path d="M 202.5 0 L 243 0 L 243 40.5 L 202.5 40.5 Z M 202.5 0 "/></clipPath><clipPath id="916fe0c71f"><path d="M 243 0 L 283.5 0 L 283.5 40.5 L 243 40.5 Z M 243 0 "/></clipPath><clipPath id="d7d1608ba3"><path d="M 202.5 121.5 L 243 121.5 L 243 162 L 202.5 162 Z M 202.5 121.5 "/></clipPath><clipPath id="ea5d54c9f2"><path d="M 243 121.5 L 283.5 121.5 L 283.5 162 L 243 162 Z M 243 121.5 "/></clipPath><clipPath id="12567acac2"><path d="M 283.5 40.5 L 303.75 40.5 L 303.75 60.75 L 283.5 60.75 Z M 283.5 40.5 "/></clipPath><clipPath id="ae07505526"><path d="M 283.5 101.25 L 303.75 101.25 L 303.75 121.5 L 283.5 121.5 Z M 283.5 101.25 "/></clipPath><clipPath id="e2c65476aa"><path d="M 243 70.875 L 263.25 70.875 L 263.25 91.125 L 243 91.125 Z M 243 70.875 "/></clipPath><clipPath id="9a7f72ac6b"><path d="M 263.25 70.875 L 283.5 70.875 L 283.5 91.125 L 263.25 91.125 Z M 263.25 70.875 "/></clipPath><clipPath id="9912e1216a"><path d="M 283.5 60.75 L 324 60.75 L 324 101.25 L 283.5 101.25 Z M 283.5 60.75 "/></clipPath><clipPath id="c2b3c4698f"><path d="M 40.5 70.875 L 50.625 70.875 L 50.625 81 L 40.5 81 Z M 40.5 70.875 "/></clipPath><clipPath id="6964798c79"><path d="M 70.875 70.875 L 81 70.875 L 81 81 L 70.875 81 Z M 70.875 70.875 "/></clipPath><clipPath id="698db3ef02"><path d="M 65.8125 70.875 L 70.875 70.875 L 70.875 81 L 65.8125 81 Z M 65.8125 70.875 "/></clipPath><clipPath id="917603758f"><path d="M 50.625 70.875 L 55.6875 70.875 L 55.6875 81 L 50.625 81 Z M 50.625 70.875 "/></clipPath><clipPath id="5f2ae64e14"><path d="M 55.6875 75.9375 L 65.8125 75.9375 L 65.8125 81 L 55.6875 81 Z M 55.6875 75.9375 "/></clipPath></defs><g id="f30bf601c3"><g clip-rule="nonzero" clip-path="url(#c1a1289f8d)"><path style=" stroke:none;fill-rule:nonzero;fill:#ffffff;fill-opacity:1;" d="M 0 0 L 40.5 0 L 40.5 162 L 0 162 Z M 0 0 "/></g><g clip-rule="nonzero" clip-path="url(#6d51275d5d)"><path style=" stroke:none;fill-rule:nonzero;fill:#ffffff;fill-opacity:1;" d="M 81 20.25 L 121.5 20.25 L 121.5 162 L 81 162 Z M 81 20.25 "/></g><g clip-rule="nonzero" clip-path="url(#5b3c41f1df)"><path style=" stroke:none;fill-rule:nonzero;fill:#ffffff;fill-opacity:1;" d="M 162 20.25 L 202.5 20.25 L 202.5 141.75 L 162 141.75 Z M 162 20.25 "/></g><g clip-rule="nonzero" clip-path="url(#f5df948dbb)"><path style=" stroke:none;fill-rule:nonzero;fill:#ffffff;fill-opacity:1;" d="M 40.5 81 L 81 81 L 81 91.125 L 40.5 91.125 Z M 40.5 81 "/></g><g clip-rule="nonzero" clip-path="url(#b3ae1da5ed)"><path style=" stroke:none;fill-rule:nonzero;fill:#ffffff;fill-opacity:1;" d="M 202.5 0 L 243 0 L 243 40.5 L 202.5 40.5 Z M 202.5 0 "/></g><g clip-rule="nonzero" clip-path="url(#916fe0c71f)"><path style=" stroke:none;fill-rule:nonzero;fill:#ffffff;fill-opacity:1;" d="M 243 0 L 283.5 0 L 283.5 40.5 L 243 40.5 Z M 243 0 "/></g><g clip-rule="nonzero" clip-path="url(#d7d1608ba3)"><path style=" stroke:none;fill-rule:nonzero;fill:#ffffff;fill-opacity:1;" d="M 202.5 121.5 L 243 121.5 L 243 162 L 202.5 162 Z M 202.5 121.5 "/></g><g clip-rule="nonzero" clip-path="url(#ea5d54c9f2)"><path style=" stroke:none;fill-rule:nonzero;fill:#ffffff;fill-opacity:1;" d="M 243 121.5 L 283.5 121.5 L 283.5 162 L 243 162 Z M 243 121.5 "/></g><g clip-rule="nonzero" clip-path="url(#12567acac2)"><path style=" stroke:none;fill-rule:nonzero;fill:#ffffff;fill-opacity:1;" d="M 283.5 40.5 L 303.75 40.5 L 303.75 60.75 L 283.5 60.75 Z M 283.5 40.5 "/></g><g clip-rule="nonzero" clip-path="url(#ae07505526)"><path style=" stroke:none;fill-rule:nonzero;fill:#ffffff;fill-opacity:1;" d="M 283.5 101.25 L 303.75 101.25 L 303.75 121.5 L 283.5 121.5 Z M 283.5 101.25 "/></g><g clip-rule="nonzero" clip-path="url(#e2c65476aa)"><path style=" stroke:none;fill-rule:nonzero;fill:#ffffff;fill-opacity:1;" d="M 243 70.875 L 263.25 70.875 L 263.25 91.125 L 243 91.125 Z M 243 70.875 "/></g><g clip-rule="nonzero" clip-path="url(#9a7f72ac6b)"><path style=" stroke:none;fill-rule:nonzero;fill:#ffffff;fill-opacity:1;" d="M 263.25 70.875 L 283.5 70.875 L 283.5 91.125 L 263.25 91.125 Z M 263.25 70.875 "/></g><g clip-rule="nonzero" clip-path="url(#9912e1216a)"><path style=" stroke:none;fill-rule:nonzero;fill:#ffffff;fill-opacity:1;" d="M 283.5 60.75 L 324 60.75 L 324 101.25 L 283.5 101.25 Z M 283.5 60.75 "/></g><g clip-rule="nonzero" clip-path="url(#c2b3c4698f)"><path style=" stroke:none;fill-rule:nonzero;fill:#ffffff;fill-opacity:1;" d="M 40.5 70.875 L 50.625 70.875 L 50.625 81 L 40.5 81 Z M 40.5 70.875 "/></g><g clip-rule="nonzero" clip-path="url(#6964798c79)"><path style=" stroke:none;fill-rule:nonzero;fill:#ffffff;fill-opacity:1;" d="M 70.875 70.875 L 81 70.875 L 81 81 L 70.875 81 Z M 70.875 70.875 "/></g><g clip-rule="nonzero" clip-path="url(#698db3ef02)"><path style=" stroke:none;fill-rule:nonzero;fill:#ffffff;fill-opacity:1;" d="M 65.8125 70.875 L 70.875 70.875 L 70.875 81 L 65.8125 81 Z M 65.8125 70.875 "/></g><g clip-rule="nonzero" clip-path="url(#917603758f)"><path style=" stroke:none;fill-rule:nonzero;fill:#ffffff;fill-opacity:1;" d="M 50.625 70.875 L 55.6875 70.875 L 55.6875 81 L 50.625 81 Z M 50.625 70.875 "/></g><g clip-rule="nonzero" clip-path="url(#5f2ae64e14)"><path style=" stroke:none;fill-rule:nonzero;fill:#ffffff;fill-opacity:1;" d="M 65.8125 75.9375 L 65.8125 81 L 55.6875 81 L 55.6875 75.9375 Z M 65.8125 75.9375 "/></g></g></svg>