<svg xmlns="http://www.w3.org/2000/svg" xmlns:xlink="http://www.w3.org/1999/xlink" width="200" zoomAndPan="magnify" viewBox="0 0 150 74.999997" height="100" preserveAspectRatio="xMidYMid meet" version="1.2"><defs><clipPath id="6fad1625cd"><path d="M 0 0 L 18.75 0 L 18.75 75 L 0 75 Z M 0 0 "/></clipPath><clipPath id="968364b321"><path d="M 37.5 9.375 L 56.25 9.375 L 56.25 75 L 37.5 75 Z M 37.5 9.375 "/></clipPath><clipPath id="5e199bc68b"><path d="M 75 9.375 L 93.75 9.375 L 93.75 65.625 L 75 65.625 Z M 75 9.375 "/></clipPath><clipPath id="55e4a0171b"><path d="M 17.25 37.5 L 39 37.5 L 39 42.1875 L 17.25 42.1875 Z M 17.25 37.5 "/></clipPath><clipPath id="e010598d13"><path d="M 93.75 0 L 117.1875 0 L 117.1875 18.75 L 93.75 18.75 Z M 93.75 0 "/></clipPath><clipPath id="4b1301e014"><path d="M 112.5 0 L 131.25 0 L 131.25 18.75 L 112.5 18.75 Z M 112.5 0 "/></clipPath><clipPath id="a5520ce931"><path d="M 93.75 56.25 L 117.1875 56.25 L 117.1875 75 L 93.75 75 Z M 93.75 56.25 "/></clipPath><clipPath id="87c747b166"><path d="M 112.5 56.25 L 131.25 56.25 L 131.25 75 L 112.5 75 Z M 112.5 56.25 "/></clipPath><clipPath id="dacab07d7b"><path d="M 131.25 18.75 L 140.625 18.75 L 140.625 32.8125 L 131.25 32.8125 Z M 131.25 18.75 "/></clipPath><clipPath id="4de74ac8b9"><path d="M 131.25 44.554688 L 140.625 44.554688 L 140.625 56.25 L 131.25 56.25 Z M 131.25 44.554688 "/></clipPath><clipPath id="594bd32d97"><path d="M 112.5 32.8125 L 124.582031 32.8125 L 124.582031 42.1875 L 112.5 42.1875 Z M 112.5 32.8125 "/></clipPath><clipPath id="40830ad578"><path d="M 121.875 32.8125 L 135.9375 32.8125 L 135.9375 42.1875 L 121.875 42.1875 Z M 121.875 32.8125 "/></clipPath><clipPath id="384a082028"><path d="M 131.25 28.125 L 150 28.125 L 150 46.875 L 131.25 46.875 Z M 131.25 28.125 "/></clipPath><clipPath id="01924fee06"><path d="M 15.5 32.8125 L 24.609375 32.8125 L 24.609375 39.3125 L 15.5 39.3125 Z M 15.5 32.8125 "/></clipPath><clipPath id="cff1f45cb6"><path d="M 32.8125 32.8125 L 42.511719 32.8125 L 42.511719 39.84375 L 32.8125 39.84375 Z M 32.8125 32.8125 "/></clipPath><clipPath id="dc15fc1978"><path d="M 30.46875 32.8125 L 34.21875 32.8125 L 34.21875 37.5 L 30.46875 37.5 Z M 30.46875 32.8125 "/></clipPath><clipPath id="402d145714"><path d="M 23.4375 32.8125 L 25.78125 32.8125 L 25.78125 37.5 L 23.4375 37.5 Z M 23.4375 32.8125 "/></clipPath><clipPath id="1568ed9ddd"><path d="M 24.605469 35.160156 L 32.339844 35.160156 L 32.339844 39.316406 L 24.605469 39.316406 Z M 24.605469 35.160156 "/></clipPath><clipPath id="b402353e61"><path d="M 89.0625 9.375 L 98.4375 9.375 L 98.4375 18.75 L 89.0625 18.75 Z M 89.0625 9.375 "/></clipPath><clipPath id="bbe2100372"><path d="M 89.0625 56.25 L 98.4375 56.25 L 98.4375 65.625 L 89.0625 65.625 Z M 89.0625 56.25 "/></clipPath></defs><g id="2a5e589805"><g clip-rule="nonzero" clip-path="url(#6fad1625cd)"><path style=" stroke:none;fill-rule:nonzero;fill:#000000;fill-opacity:1;" d="M 0 0 L 18.75 0 L 18.75 75 L 0 75 Z M 0 0 "/></g><g clip-rule="nonzero" clip-path="url(#968364b321)"><path style=" stroke:none;fill-rule:nonzero;fill:#000000;fill-opacity:1;" d="M 37.5 9.375 L 56.25 9.375 L 56.25 75 L 37.5 75 Z M 37.5 9.375 "/></g><g clip-rule="nonzero" clip-path="url(#5e199bc68b)"><path style=" stroke:none;fill-rule:nonzero;fill:#000000;fill-opacity:1;" d="M 75 9.375 L 93.75 9.375 L 93.75 65.625 L 75 65.625 Z M 75 9.375 "/></g><g clip-rule="nonzero" clip-path="url(#55e4a0171b)"><path style=" stroke:none;fill-rule:nonzero;fill:#000000;fill-opacity:1;" d="M 17.25 37.5 L 39.003906 37.5 L 39.003906 42.1875 L 17.25 42.1875 Z M 17.25 37.5 "/></g><g clip-rule="nonzero" clip-path="url(#e010598d13)"><path style=" stroke:none;fill-rule:nonzero;fill:#000000;fill-opacity:1;" d="M 93.75 0 L 117.1875 0 L 117.1875 18.75 L 93.75 18.75 Z M 93.75 0 "/></g><g clip-rule="nonzero" clip-path="url(#4b1301e014)"><path style=" stroke:none;fill-rule:nonzero;fill:#000000;fill-opacity:1;" d="M 112.5 0 L 131.25 0 L 131.25 18.75 L 112.5 18.75 Z M 112.5 0 "/></g><g clip-rule="nonzero" clip-path="url(#a5520ce931)"><path style=" stroke:none;fill-rule:nonzero;fill:#000000;fill-opacity:1;" d="M 93.75 56.25 L 117.1875 56.25 L 117.1875 75 L 93.75 75 Z M 93.75 56.25 "/></g><g clip-rule="nonzero" clip-path="url(#87c747b166)"><path style=" stroke:none;fill-rule:nonzero;fill:#000000;fill-opacity:1;" d="M 112.5 56.25 L 131.25 56.25 L 131.25 75 L 112.5 75 Z M 112.5 56.25 "/></g><g clip-rule="nonzero" clip-path="url(#dacab07d7b)"><path style=" stroke:none;fill-rule:nonzero;fill:#000000;fill-opacity:1;" d="M 131.25 18.75 L 140.625 18.75 L 140.625 32.8125 L 131.25 32.8125 Z M 131.25 18.75 "/></g><g clip-rule="nonzero" clip-path="url(#4de74ac8b9)"><path style=" stroke:none;fill-rule:nonzero;fill:#000000;fill-opacity:1;" d="M 131.25 44.554688 L 140.625 44.554688 L 140.625 56.234375 L 131.25 56.234375 Z M 131.25 44.554688 "/></g><g clip-rule="nonzero" clip-path="url(#594bd32d97)"><path style=" stroke:none;fill-rule:nonzero;fill:#000000;fill-opacity:1;" d="M 112.5 32.8125 L 124.585938 32.8125 L 124.585938 42.1875 L 112.5 42.1875 Z M 112.5 32.8125 "/></g><g clip-rule="nonzero" clip-path="url(#40830ad578)"><path style=" stroke:none;fill-rule:nonzero;fill:#000000;fill-opacity:1;" d="M 121.875 32.8125 L 135.9375 32.8125 L 135.9375 42.1875 L 121.875 42.1875 Z M 121.875 32.8125 "/></g><g clip-rule="nonzero" clip-path="url(#384a082028)"><path style=" stroke:none;fill-rule:nonzero;fill:#000000;fill-opacity:1;" d="M 131.25 28.125 L 150 28.125 L 150 46.875 L 131.25 46.875 Z M 131.25 28.125 "/></g><g clip-rule="nonzero" clip-path="url(#01924fee06)"><path style=" stroke:none;fill-rule:nonzero;fill:#000000;fill-opacity:1;" d="M 15.5 32.8125 L 24.613281 32.8125 L 24.613281 39.3125 L 15.5 39.3125 Z M 15.5 32.8125 "/></g><g clip-rule="nonzero" clip-path="url(#cff1f45cb6)"><path style=" stroke:none;fill-rule:nonzero;fill:#000000;fill-opacity:1;" d="M 32.8125 32.8125 L 42.507812 32.8125 L 42.507812 39.84375 L 32.8125 39.84375 Z M 32.8125 32.8125 "/></g><g clip-rule="nonzero" clip-path="url(#dc15fc1978)"><path style=" stroke:none;fill-rule:nonzero;fill:#000000;fill-opacity:1;" d="M 30.46875 32.8125 L 34.21875 32.8125 L 34.21875 37.5 L 30.46875 37.5 Z M 30.46875 32.8125 "/></g><g clip-rule="nonzero" clip-path="url(#402d145714)"><path style=" stroke:none;fill-rule:nonzero;fill:#000000;fill-opacity:1;" d="M 23.4375 32.8125 L 25.78125 32.8125 L 25.78125 37.5 L 23.4375 37.5 Z M 23.4375 32.8125 "/></g><g clip-rule="nonzero" clip-path="url(#1568ed9ddd)"><path style=" stroke:none;fill-rule:nonzero;fill:#000000;fill-opacity:1;" d="M 32.339844 35.160156 L 32.339844 39.316406 L 24.613281 39.316406 L 24.613281 35.160156 Z M 32.339844 35.160156 "/></g><g clip-rule="nonzero" clip-path="url(#b402353e61)"><path style=" stroke:none;fill-rule:nonzero;fill:#000000;fill-opacity:1;" d="M 89.0625 9.375 L 98.4375 9.375 L 98.4375 18.75 L 89.0625 18.75 Z M 89.0625 9.375 "/></g><g clip-rule="nonzero" clip-path="url(#bbe2100372)"><path style=" stroke:none;fill-rule:nonzero;fill:#000000;fill-opacity:1;" d="M 89.0625 56.25 L 98.4375 56.25 L 98.4375 65.625 L 89.0625 65.625 Z M 89.0625 56.25 "/></g></g></svg>