<svg xmlns="http://www.w3.org/2000/svg" xmlns:xlink="http://www.w3.org/1999/xlink" width="250" zoomAndPan="magnify" viewBox="0 0 187.5 188.249992" height="251" preserveAspectRatio="xMidYMid meet" version="1.2"><defs><clipPath id="5de372ad57"><path d="M 0.121094 0 L 186.878906 0 L 186.878906 186.882812 L 0.121094 186.882812 Z M 0.121094 0 "/></clipPath><clipPath id="774fef7ea4"><path d="M 18.796875 56.089844 L 37.472656 56.089844 L 37.472656 130.792969 L 18.796875 130.792969 Z M 18.796875 56.089844 "/></clipPath><clipPath id="7b8577cd11"><path d="M 56.148438 65.425781 L 74.824219 65.425781 L 74.824219 130.792969 L 56.148438 130.792969 Z M 56.148438 65.425781 "/></clipPath><clipPath id="1a3c2e484e"><path d="M 93.5 65.425781 L 112.175781 65.425781 L 112.175781 121.453125 L 93.5 121.453125 Z M 93.5 65.425781 "/></clipPath><clipPath id="e2b611a190"><path d="M 35.980469 93.441406 L 57.644531 93.441406 L 57.644531 98.109375 L 35.980469 98.109375 Z M 35.980469 93.441406 "/></clipPath><clipPath id="3ec9a4173d"><path d="M 112.175781 56.089844 L 135.519531 56.089844 L 135.519531 74.765625 L 112.175781 74.765625 Z M 112.175781 56.089844 "/></clipPath><clipPath id="275ab6d68a"><path d="M 130.851562 56.089844 L 149.527344 56.089844 L 149.527344 74.765625 L 130.851562 74.765625 Z M 130.851562 56.089844 "/></clipPath><clipPath id="1f08207d46"><path d="M 112.175781 112.117188 L 135.519531 112.117188 L 135.519531 130.792969 L 112.175781 130.792969 Z M 112.175781 112.117188 "/></clipPath><clipPath id="d83140fbb0"><path d="M 130.851562 112.117188 L 149.527344 112.117188 L 149.527344 130.792969 L 130.851562 130.792969 Z M 130.851562 112.117188 "/></clipPath><clipPath id="6e95da3f8b"><path d="M 149.527344 74.765625 L 158.867188 74.765625 L 158.867188 88.773438 L 149.527344 88.773438 Z M 149.527344 74.765625 "/></clipPath><clipPath id="1b4bf9eb9e"><path d="M 149.527344 100.464844 L 158.867188 100.464844 L 158.867188 112.117188 L 149.527344 112.117188 Z M 149.527344 100.464844 "/></clipPath><clipPath id="96a1ffba7a"><path d="M 130.851562 88.773438 L 142.886719 88.773438 L 142.886719 98.109375 L 130.851562 98.109375 Z M 130.851562 88.773438 "/></clipPath><clipPath id="2acf9c9f11"><path d="M 140.191406 88.773438 L 154.195312 88.773438 L 154.195312 98.109375 L 140.191406 98.109375 Z M 140.191406 88.773438 "/></clipPath><clipPath id="8d8619ed4b"><path d="M 149.527344 84.101562 L 168.203125 84.101562 L 168.203125 102.777344 L 149.527344 102.777344 Z M 149.527344 84.101562 "/></clipPath><clipPath id="691b498c49"><path d="M 34.238281 88.773438 L 43.308594 88.773438 L 43.308594 95.246094 L 34.238281 95.246094 Z M 34.238281 88.773438 "/></clipPath><clipPath id="8bccda5890"><path d="M 51.480469 88.773438 L 61.144531 88.773438 L 61.144531 95.773438 L 51.480469 95.773438 Z M 51.480469 88.773438 "/></clipPath><clipPath id="0a8b8a21e7"><path d="M 49.144531 88.773438 L 52.882812 88.773438 L 52.882812 93.441406 L 49.144531 93.441406 Z M 49.144531 88.773438 "/></clipPath><clipPath id="c84fff75cc"><path d="M 42.144531 88.773438 L 44.476562 88.773438 L 44.476562 93.441406 L 42.144531 93.441406 Z M 42.144531 88.773438 "/></clipPath><clipPath id="e294c6a031"><path d="M 43.308594 91.109375 L 51.011719 91.109375 L 51.011719 95.25 L 43.308594 95.25 Z M 43.308594 91.109375 "/></clipPath><clipPath id="9fc6d1a9a1"><path d="M 107.507812 65.425781 L 116.84375 65.425781 L 116.84375 74.765625 L 107.507812 74.765625 Z M 107.507812 65.425781 "/></clipPath><clipPath id="baa57c4a9e"><path d="M 107.507812 112.117188 L 116.84375 112.117188 L 116.84375 121.453125 L 107.507812 121.453125 Z M 107.507812 112.117188 "/></clipPath></defs><g id="55d1ff6f47"><g clip-rule="nonzero" clip-path="url(#5de372ad57)"><path style=" stroke:none;fill-rule:nonzero;fill:#000000;fill-opacity:1;" d="M 0.121094 0 L 186.878906 0 L 186.878906 186.757812 L 0.121094 186.757812 Z M 0.121094 0 "/></g><g clip-rule="nonzero" clip-path="url(#774fef7ea4)"><path style=" stroke:none;fill-rule:nonzero;fill:#ffffff;fill-opacity:1;" d="M 18.796875 56.089844 L 37.472656 56.089844 L 37.472656 130.792969 L 18.796875 130.792969 Z M 18.796875 56.089844 "/></g><g clip-rule="nonzero" clip-path="url(#7b8577cd11)"><path style=" stroke:none;fill-rule:nonzero;fill:#ffffff;fill-opacity:1;" d="M 56.148438 65.425781 L 74.824219 65.425781 L 74.824219 130.792969 L 56.148438 130.792969 Z M 56.148438 65.425781 "/></g><g clip-rule="nonzero" clip-path="url(#1a3c2e484e)"><path style=" stroke:none;fill-rule:nonzero;fill:#ffffff;fill-opacity:1;" d="M 93.5 65.425781 L 112.175781 65.425781 L 112.175781 121.453125 L 93.5 121.453125 Z M 93.5 65.425781 "/></g><g clip-rule="nonzero" clip-path="url(#e2b611a190)"><path style=" stroke:none;fill-rule:nonzero;fill:#ffffff;fill-opacity:1;" d="M 35.980469 93.441406 L 57.648438 93.441406 L 57.648438 98.109375 L 35.980469 98.109375 Z M 35.980469 93.441406 "/></g><g clip-rule="nonzero" clip-path="url(#3ec9a4173d)"><path style=" stroke:none;fill-rule:nonzero;fill:#ffffff;fill-opacity:1;" d="M 112.175781 56.089844 L 135.519531 56.089844 L 135.519531 74.765625 L 112.175781 74.765625 Z M 112.175781 56.089844 "/></g><g clip-rule="nonzero" clip-path="url(#275ab6d68a)"><path style=" stroke:none;fill-rule:nonzero;fill:#ffffff;fill-opacity:1;" d="M 130.851562 56.089844 L 149.527344 56.089844 L 149.527344 74.765625 L 130.851562 74.765625 Z M 130.851562 56.089844 "/></g><g clip-rule="nonzero" clip-path="url(#1f08207d46)"><path style=" stroke:none;fill-rule:nonzero;fill:#ffffff;fill-opacity:1;" d="M 112.175781 112.117188 L 135.519531 112.117188 L 135.519531 130.792969 L 112.175781 130.792969 Z M 112.175781 112.117188 "/></g><g clip-rule="nonzero" clip-path="url(#d83140fbb0)"><path style=" stroke:none;fill-rule:nonzero;fill:#ffffff;fill-opacity:1;" d="M 130.851562 112.117188 L 149.527344 112.117188 L 149.527344 130.792969 L 130.851562 130.792969 Z M 130.851562 112.117188 "/></g><g clip-rule="nonzero" clip-path="url(#6e95da3f8b)"><path style=" stroke:none;fill-rule:nonzero;fill:#ffffff;fill-opacity:1;" d="M 149.527344 74.765625 L 158.867188 74.765625 L 158.867188 88.773438 L 149.527344 88.773438 Z M 149.527344 74.765625 "/></g><g clip-rule="nonzero" clip-path="url(#1b4bf9eb9e)"><path style=" stroke:none;fill-rule:nonzero;fill:#ffffff;fill-opacity:1;" d="M 149.527344 100.464844 L 158.867188 100.464844 L 158.867188 112.101562 L 149.527344 112.101562 Z M 149.527344 100.464844 "/></g><g clip-rule="nonzero" clip-path="url(#96a1ffba7a)"><path style=" stroke:none;fill-rule:nonzero;fill:#ffffff;fill-opacity:1;" d="M 130.851562 88.773438 L 142.890625 88.773438 L 142.890625 98.109375 L 130.851562 98.109375 Z M 130.851562 88.773438 "/></g><g clip-rule="nonzero" clip-path="url(#2acf9c9f11)"><path style=" stroke:none;fill-rule:nonzero;fill:#ffffff;fill-opacity:1;" d="M 140.191406 88.773438 L 154.195312 88.773438 L 154.195312 98.109375 L 140.191406 98.109375 Z M 140.191406 88.773438 "/></g><g clip-rule="nonzero" clip-path="url(#8d8619ed4b)"><path style=" stroke:none;fill-rule:nonzero;fill:#ffffff;fill-opacity:1;" d="M 149.527344 84.101562 L 168.203125 84.101562 L 168.203125 102.777344 L 149.527344 102.777344 Z M 149.527344 84.101562 "/></g><g clip-rule="nonzero" clip-path="url(#691b498c49)"><path style=" stroke:none;fill-rule:nonzero;fill:#ffffff;fill-opacity:1;" d="M 34.238281 88.773438 L 43.316406 88.773438 L 43.316406 95.246094 L 34.238281 95.246094 Z M 34.238281 88.773438 "/></g><g clip-rule="nonzero" clip-path="url(#8bccda5890)"><path style=" stroke:none;fill-rule:nonzero;fill:#ffffff;fill-opacity:1;" d="M 51.480469 88.773438 L 61.136719 88.773438 L 61.136719 95.773438 L 51.480469 95.773438 Z M 51.480469 88.773438 "/></g><g clip-rule="nonzero" clip-path="url(#0a8b8a21e7)"><path style=" stroke:none;fill-rule:nonzero;fill:#ffffff;fill-opacity:1;" d="M 49.144531 88.773438 L 52.882812 88.773438 L 52.882812 93.441406 L 49.144531 93.441406 Z M 49.144531 88.773438 "/></g><g clip-rule="nonzero" clip-path="url(#c84fff75cc)"><path style=" stroke:none;fill-rule:nonzero;fill:#ffffff;fill-opacity:1;" d="M 42.144531 88.773438 L 44.476562 88.773438 L 44.476562 93.441406 L 42.144531 93.441406 Z M 42.144531 88.773438 "/></g><g clip-rule="nonzero" clip-path="url(#e294c6a031)"><path style=" stroke:none;fill-rule:nonzero;fill:#ffffff;fill-opacity:1;" d="M 51.011719 91.109375 L 51.011719 95.25 L 43.3125 95.25 L 43.3125 91.109375 Z M 51.011719 91.109375 "/></g><g clip-rule="nonzero" clip-path="url(#9fc6d1a9a1)"><path style=" stroke:none;fill-rule:nonzero;fill:#ffffff;fill-opacity:1;" d="M 107.507812 65.425781 L 116.84375 65.425781 L 116.84375 74.765625 L 107.507812 74.765625 Z M 107.507812 65.425781 "/></g><g clip-rule="nonzero" clip-path="url(#baa57c4a9e)"><path style=" stroke:none;fill-rule:nonzero;fill:#ffffff;fill-opacity:1;" d="M 107.507812 112.117188 L 116.84375 112.117188 L 116.84375 121.453125 L 107.507812 121.453125 Z M 107.507812 112.117188 "/></g></g></svg>