<svg xmlns="http://www.w3.org/2000/svg" xmlns:xlink="http://www.w3.org/1999/xlink" width="540" zoomAndPan="magnify" viewBox="0 0 404.88 242.999999" height="324" preserveAspectRatio="xMidYMid meet" version="1.2"><defs><clipPath id="2ce7989b83"><path d="M 0 0.0351562 L 404.761719 0.0351562 L 404.761719 242.234375 L 0 242.234375 Z M 0 0.0351562 "/></clipPath><clipPath id="f6509daa82"><path d="M 40.488281 40.523438 L 80.976562 40.523438 L 80.976562 202.476562 L 40.488281 202.476562 Z M 40.488281 40.523438 "/></clipPath><clipPath id="83285e377d"><path d="M 121.464844 60.769531 L 161.953125 60.769531 L 161.953125 202.476562 L 121.464844 202.476562 Z M 121.464844 60.769531 "/></clipPath><clipPath id="22d6cf84ef"><path d="M 202.441406 60.769531 L 242.929688 60.769531 L 242.929688 182.230469 L 202.441406 182.230469 Z M 202.441406 60.769531 "/></clipPath><clipPath id="0c25fa7662"><path d="M 80.976562 121.5 L 121.464844 121.5 L 121.464844 131.621094 L 80.976562 131.621094 Z M 80.976562 121.5 "/></clipPath><clipPath id="6b46398f15"><path d="M 242.929688 40.523438 L 283.414062 40.523438 L 283.414062 81.011719 L 242.929688 81.011719 Z M 242.929688 40.523438 "/></clipPath><clipPath id="788abde64b"><path d="M 283.414062 40.523438 L 323.902344 40.523438 L 323.902344 81.011719 L 283.414062 81.011719 Z M 283.414062 40.523438 "/></clipPath><clipPath id="243f2dde59"><path d="M 242.929688 161.988281 L 283.414062 161.988281 L 283.414062 202.476562 L 242.929688 202.476562 Z M 242.929688 161.988281 "/></clipPath><clipPath id="bedfd78ae5"><path d="M 283.414062 161.988281 L 323.902344 161.988281 L 323.902344 202.476562 L 283.414062 202.476562 Z M 283.414062 161.988281 "/></clipPath><clipPath id="a2dd947bac"><path d="M 323.902344 81.011719 L 344.148438 81.011719 L 344.148438 101.257812 L 323.902344 101.257812 Z M 323.902344 81.011719 "/></clipPath><clipPath id="8b98b8b0b3"><path d="M 323.902344 141.742188 L 344.148438 141.742188 L 344.148438 161.988281 L 323.902344 161.988281 Z M 323.902344 141.742188 "/></clipPath><clipPath id="b97944ffe7"><path d="M 283.414062 111.378906 L 303.660156 111.378906 L 303.660156 131.621094 L 283.414062 131.621094 Z M 283.414062 111.378906 "/></clipPath><clipPath id="eb9215fbf5"><path d="M 303.660156 111.378906 L 323.902344 111.378906 L 323.902344 131.621094 L 303.660156 131.621094 Z M 303.660156 111.378906 "/></clipPath><clipPath id="3cbfd0fb75"><path d="M 323.902344 101.257812 L 364.390625 101.257812 L 364.390625 141.742188 L 323.902344 141.742188 Z M 323.902344 101.257812 "/></clipPath><clipPath id="3974371ae8"><path d="M 80.976562 111.378906 L 91.097656 111.378906 L 91.097656 121.5 L 80.976562 121.5 Z M 80.976562 111.378906 "/></clipPath><clipPath id="3ee8a86de4"><path d="M 111.34375 111.378906 L 121.464844 111.378906 L 121.464844 121.5 L 111.34375 121.5 Z M 111.34375 111.378906 "/></clipPath><clipPath id="6a1f2f0215"><path d="M 106.28125 111.378906 L 111.34375 111.378906 L 111.34375 121.5 L 106.28125 121.5 Z M 106.28125 111.378906 "/></clipPath><clipPath id="eb34b60362"><path d="M 91.097656 111.378906 L 96.160156 111.378906 L 96.160156 121.5 L 91.097656 121.5 Z M 91.097656 111.378906 "/></clipPath><clipPath id="54ad2bb796"><path d="M 96.160156 116.4375 L 106.28125 116.4375 L 106.28125 121.5 L 96.160156 121.5 Z M 96.160156 116.4375 "/></clipPath></defs><g id="6941126b7c"><g clip-rule="nonzero" clip-path="url(#2ce7989b83)"><path style=" stroke:none;fill-rule:nonzero;fill:#000000;fill-opacity:1;" d="M 0 0.0351562 L 404.921875 0.0351562 L 404.921875 242.234375 L 0 242.234375 Z M 0 0.0351562 "/></g><g clip-rule="nonzero" clip-path="url(#f6509daa82)"><path style=" stroke:none;fill-rule:nonzero;fill:#ffffff;fill-opacity:1;" d="M 40.488281 40.523438 L 80.976562 40.523438 L 80.976562 202.476562 L 40.488281 202.476562 Z M 40.488281 40.523438 "/></g><g clip-rule="nonzero" clip-path="url(#83285e377d)"><path style=" stroke:none;fill-rule:nonzero;fill:#ffffff;fill-opacity:1;" d="M 121.464844 60.769531 L 161.953125 60.769531 L 161.953125 202.476562 L 121.464844 202.476562 Z M 121.464844 60.769531 "/></g><g clip-rule="nonzero" clip-path="url(#22d6cf84ef)"><path style=" stroke:none;fill-rule:nonzero;fill:#ffffff;fill-opacity:1;" d="M 202.441406 60.769531 L 242.929688 60.769531 L 242.929688 182.230469 L 202.441406 182.230469 Z M 202.441406 60.769531 "/></g><g clip-rule="nonzero" clip-path="url(#0c25fa7662)"><path style=" stroke:none;fill-rule:nonzero;fill:#ffffff;fill-opacity:1;" d="M 80.976562 121.5 L 121.464844 121.5 L 121.464844 131.621094 L 80.976562 131.621094 Z M 80.976562 121.5 "/></g><g clip-rule="nonzero" clip-path="url(#6b46398f15)"><path style=" stroke:none;fill-rule:nonzero;fill:#ffffff;fill-opacity:1;" d="M 242.929688 40.523438 L 283.414062 40.523438 L 283.414062 81.011719 L 242.929688 81.011719 Z M 242.929688 40.523438 "/></g><g clip-rule="nonzero" clip-path="url(#788abde64b)"><path style=" stroke:none;fill-rule:nonzero;fill:#ffffff;fill-opacity:1;" d="M 283.414062 40.523438 L 323.902344 40.523438 L 323.902344 81.011719 L 283.414062 81.011719 Z M 283.414062 40.523438 "/></g><g clip-rule="nonzero" clip-path="url(#243f2dde59)"><path style=" stroke:none;fill-rule:nonzero;fill:#ffffff;fill-opacity:1;" d="M 242.929688 161.988281 L 283.414062 161.988281 L 283.414062 202.476562 L 242.929688 202.476562 Z M 242.929688 161.988281 "/></g><g clip-rule="nonzero" clip-path="url(#bedfd78ae5)"><path style=" stroke:none;fill-rule:nonzero;fill:#ffffff;fill-opacity:1;" d="M 283.414062 161.988281 L 323.902344 161.988281 L 323.902344 202.476562 L 283.414062 202.476562 Z M 283.414062 161.988281 "/></g><g clip-rule="nonzero" clip-path="url(#a2dd947bac)"><path style=" stroke:none;fill-rule:nonzero;fill:#ffffff;fill-opacity:1;" d="M 323.902344 81.011719 L 344.148438 81.011719 L 344.148438 101.257812 L 323.902344 101.257812 Z M 323.902344 81.011719 "/></g><g clip-rule="nonzero" clip-path="url(#8b98b8b0b3)"><path style=" stroke:none;fill-rule:nonzero;fill:#ffffff;fill-opacity:1;" d="M 323.902344 141.742188 L 344.148438 141.742188 L 344.148438 161.988281 L 323.902344 161.988281 Z M 323.902344 141.742188 "/></g><g clip-rule="nonzero" clip-path="url(#b97944ffe7)"><path style=" stroke:none;fill-rule:nonzero;fill:#ffffff;fill-opacity:1;" d="M 283.414062 111.378906 L 303.660156 111.378906 L 303.660156 131.621094 L 283.414062 131.621094 Z M 283.414062 111.378906 "/></g><g clip-rule="nonzero" clip-path="url(#eb9215fbf5)"><path style=" stroke:none;fill-rule:nonzero;fill:#ffffff;fill-opacity:1;" d="M 303.660156 111.378906 L 323.902344 111.378906 L 323.902344 131.621094 L 303.660156 131.621094 Z M 303.660156 111.378906 "/></g><g clip-rule="nonzero" clip-path="url(#3cbfd0fb75)"><path style=" stroke:none;fill-rule:nonzero;fill:#ffffff;fill-opacity:1;" d="M 323.902344 101.257812 L 364.390625 101.257812 L 364.390625 141.742188 L 323.902344 141.742188 Z M 323.902344 101.257812 "/></g><g clip-rule="nonzero" clip-path="url(#3974371ae8)"><path style=" stroke:none;fill-rule:nonzero;fill:#ffffff;fill-opacity:1;" d="M 80.976562 111.378906 L 91.097656 111.378906 L 91.097656 121.5 L 80.976562 121.5 Z M 80.976562 111.378906 "/></g><g clip-rule="nonzero" clip-path="url(#3ee8a86de4)"><path style=" stroke:none;fill-rule:nonzero;fill:#ffffff;fill-opacity:1;" d="M 111.34375 111.378906 L 121.464844 111.378906 L 121.464844 121.5 L 111.34375 121.5 Z M 111.34375 111.378906 "/></g><g clip-rule="nonzero" clip-path="url(#6a1f2f0215)"><path style=" stroke:none;fill-rule:nonzero;fill:#ffffff;fill-opacity:1;" d="M 106.28125 111.378906 L 111.34375 111.378906 L 111.34375 121.5 L 106.28125 121.5 Z M 106.28125 111.378906 "/></g><g clip-rule="nonzero" clip-path="url(#eb34b60362)"><path style=" stroke:none;fill-rule:nonzero;fill:#ffffff;fill-opacity:1;" d="M 91.097656 111.378906 L 96.160156 111.378906 L 96.160156 121.5 L 91.097656 121.5 Z M 91.097656 111.378906 "/></g><g clip-rule="nonzero" clip-path="url(#54ad2bb796)"><path style=" stroke:none;fill-rule:nonzero;fill:#ffffff;fill-opacity:1;" d="M 106.28125 116.4375 L 106.28125 121.5 L 96.160156 121.5 L 96.160156 116.4375 Z M 106.28125 116.4375 "/></g></g></svg>