<svg xmlns="http://www.w3.org/2000/svg" xmlns:xlink="http://www.w3.org/1999/xlink" width="250" zoomAndPan="magnify" viewBox="0 0 187.5 112.499997" height="150" preserveAspectRatio="xMidYMid meet" version="1.2"><defs><clipPath id="ae2778ca19"><path d="M 0.164062 0 L 186.835938 0 L 186.835938 111.664062 L 0.164062 111.664062 Z M 0.164062 0 "/></clipPath><clipPath id="6fe005e8d4"><path d="M 18.832031 18.667969 L 37.5 18.667969 L 37.5 93.335938 L 18.832031 93.335938 Z M 18.832031 18.667969 "/></clipPath><clipPath id="5b3a10cfe5"><path d="M 56.167969 28 L 74.835938 28 L 74.835938 93.335938 L 56.167969 93.335938 Z M 56.167969 28 "/></clipPath><clipPath id="344ce09344"><path d="M 93.5 28 L 112.167969 28 L 112.167969 84 L 93.5 84 Z M 93.5 28 "/></clipPath><clipPath id="b7bb328228"><path d="M 36.007812 56 L 57.660156 56 L 57.660156 60.667969 L 36.007812 60.667969 Z M 36.007812 56 "/></clipPath><clipPath id="ddd43b46f5"><path d="M 112.167969 18.667969 L 135.5 18.667969 L 135.5 37.335938 L 112.167969 37.335938 Z M 112.167969 18.667969 "/></clipPath><clipPath id="ff0624fcae"><path d="M 130.835938 18.667969 L 149.503906 18.667969 L 149.503906 37.335938 L 130.835938 37.335938 Z M 130.835938 18.667969 "/></clipPath><clipPath id="466a11d729"><path d="M 112.167969 74.667969 L 135.5 74.667969 L 135.5 93.335938 L 112.167969 93.335938 Z M 112.167969 74.667969 "/></clipPath><clipPath id="bb4aba14d4"><path d="M 130.835938 74.667969 L 149.503906 74.667969 L 149.503906 93.335938 L 130.835938 93.335938 Z M 130.835938 74.667969 "/></clipPath><clipPath id="acec332dc2"><path d="M 149.503906 37.335938 L 158.835938 37.335938 L 158.835938 51.335938 L 149.503906 51.335938 Z M 149.503906 37.335938 "/></clipPath><clipPath id="2d7517e217"><path d="M 149.503906 63.023438 L 158.835938 63.023438 L 158.835938 74.667969 L 149.503906 74.667969 Z M 149.503906 63.023438 "/></clipPath><clipPath id="de71b0ffd0"><path d="M 130.835938 51.335938 L 142.867188 51.335938 L 142.867188 60.667969 L 130.835938 60.667969 Z M 130.835938 51.335938 "/></clipPath><clipPath id="d2ad844a0b"><path d="M 140.167969 51.335938 L 154.167969 51.335938 L 154.167969 60.667969 L 140.167969 60.667969 Z M 140.167969 51.335938 "/></clipPath><clipPath id="ee7ab76ecb"><path d="M 149.503906 46.667969 L 168.167969 46.667969 L 168.167969 65.335938 L 149.503906 65.335938 Z M 149.503906 46.667969 "/></clipPath><clipPath id="6d978f9ebf"><path d="M 34.265625 51.335938 L 43.332031 51.335938 L 43.332031 57.804688 L 34.265625 57.804688 Z M 34.265625 51.335938 "/></clipPath><clipPath id="2a90810533"><path d="M 51.5 51.335938 L 61.15625 51.335938 L 61.15625 58.335938 L 51.5 58.335938 Z M 51.5 51.335938 "/></clipPath><clipPath id="b4917236b5"><path d="M 49.167969 51.335938 L 52.898438 51.335938 L 52.898438 56 L 49.167969 56 Z M 49.167969 51.335938 "/></clipPath><clipPath id="f7b41fca42"><path d="M 42.167969 51.335938 L 44.5 51.335938 L 44.5 56 L 42.167969 56 Z M 42.167969 51.335938 "/></clipPath><clipPath id="462fdceee7"><path d="M 43.328125 53.671875 L 51.03125 53.671875 L 51.03125 57.808594 L 43.328125 57.808594 Z M 43.328125 53.671875 "/></clipPath><clipPath id="d9312a3e9d"><path d="M 107.5 28 L 116.835938 28 L 116.835938 37.335938 L 107.5 37.335938 Z M 107.5 28 "/></clipPath><clipPath id="db97f5e84e"><path d="M 107.5 74.667969 L 116.835938 74.667969 L 116.835938 84 L 107.5 84 Z M 107.5 74.667969 "/></clipPath></defs><g id="bbce6e91ad"><g clip-rule="nonzero" clip-path="url(#ae2778ca19)"><path style=" stroke:none;fill-rule:nonzero;fill:#000000;fill-opacity:1;" d="M 0.164062 0 L 186.855469 0 L 186.855469 111.664062 L 0.164062 111.664062 Z M 0.164062 0 "/></g><g clip-rule="nonzero" clip-path="url(#6fe005e8d4)"><path style=" stroke:none;fill-rule:nonzero;fill:#ffffff;fill-opacity:1;" d="M 18.832031 18.667969 L 37.5 18.667969 L 37.5 93.335938 L 18.832031 93.335938 Z M 18.832031 18.667969 "/></g><g clip-rule="nonzero" clip-path="url(#5b3a10cfe5)"><path style=" stroke:none;fill-rule:nonzero;fill:#ffffff;fill-opacity:1;" d="M 56.167969 28 L 74.835938 28 L 74.835938 93.335938 L 56.167969 93.335938 Z M 56.167969 28 "/></g><g clip-rule="nonzero" clip-path="url(#344ce09344)"><path style=" stroke:none;fill-rule:nonzero;fill:#ffffff;fill-opacity:1;" d="M 93.5 28 L 112.167969 28 L 112.167969 84 L 93.5 84 Z M 93.5 28 "/></g><g clip-rule="nonzero" clip-path="url(#b7bb328228)"><path style=" stroke:none;fill-rule:nonzero;fill:#ffffff;fill-opacity:1;" d="M 36.007812 56 L 57.664062 56 L 57.664062 60.667969 L 36.007812 60.667969 Z M 36.007812 56 "/></g><g clip-rule="nonzero" clip-path="url(#ddd43b46f5)"><path style=" stroke:none;fill-rule:nonzero;fill:#ffffff;fill-opacity:1;" d="M 112.167969 18.667969 L 135.5 18.667969 L 135.5 37.335938 L 112.167969 37.335938 Z M 112.167969 18.667969 "/></g><g clip-rule="nonzero" clip-path="url(#ff0624fcae)"><path style=" stroke:none;fill-rule:nonzero;fill:#ffffff;fill-opacity:1;" d="M 130.835938 18.667969 L 149.503906 18.667969 L 149.503906 37.335938 L 130.835938 37.335938 Z M 130.835938 18.667969 "/></g><g clip-rule="nonzero" clip-path="url(#466a11d729)"><path style=" stroke:none;fill-rule:nonzero;fill:#ffffff;fill-opacity:1;" d="M 112.167969 74.667969 L 135.5 74.667969 L 135.5 93.335938 L 112.167969 93.335938 Z M 112.167969 74.667969 "/></g><g clip-rule="nonzero" clip-path="url(#bb4aba14d4)"><path style=" stroke:none;fill-rule:nonzero;fill:#ffffff;fill-opacity:1;" d="M 130.835938 74.667969 L 149.503906 74.667969 L 149.503906 93.335938 L 130.835938 93.335938 Z M 130.835938 74.667969 "/></g><g clip-rule="nonzero" clip-path="url(#acec332dc2)"><path style=" stroke:none;fill-rule:nonzero;fill:#ffffff;fill-opacity:1;" d="M 149.503906 37.335938 L 158.835938 37.335938 L 158.835938 51.335938 L 149.503906 51.335938 Z M 149.503906 37.335938 "/></g><g clip-rule="nonzero" clip-path="url(#2d7517e217)"><path style=" stroke:none;fill-rule:nonzero;fill:#ffffff;fill-opacity:1;" d="M 149.503906 63.023438 L 158.835938 63.023438 L 158.835938 74.652344 L 149.503906 74.652344 Z M 149.503906 63.023438 "/></g><g clip-rule="nonzero" clip-path="url(#de71b0ffd0)"><path style=" stroke:none;fill-rule:nonzero;fill:#ffffff;fill-opacity:1;" d="M 130.835938 51.335938 L 142.867188 51.335938 L 142.867188 60.667969 L 130.835938 60.667969 Z M 130.835938 51.335938 "/></g><g clip-rule="nonzero" clip-path="url(#d2ad844a0b)"><path style=" stroke:none;fill-rule:nonzero;fill:#ffffff;fill-opacity:1;" d="M 140.167969 51.335938 L 154.167969 51.335938 L 154.167969 60.667969 L 140.167969 60.667969 Z M 140.167969 51.335938 "/></g><g clip-rule="nonzero" clip-path="url(#ee7ab76ecb)"><path style=" stroke:none;fill-rule:nonzero;fill:#ffffff;fill-opacity:1;" d="M 149.503906 46.667969 L 168.167969 46.667969 L 168.167969 65.335938 L 149.503906 65.335938 Z M 149.503906 46.667969 "/></g><g clip-rule="nonzero" clip-path="url(#6d978f9ebf)"><path style=" stroke:none;fill-rule:nonzero;fill:#ffffff;fill-opacity:1;" d="M 34.265625 51.335938 L 43.339844 51.335938 L 43.339844 57.804688 L 34.265625 57.804688 Z M 34.265625 51.335938 "/></g><g clip-rule="nonzero" clip-path="url(#2a90810533)"><path style=" stroke:none;fill-rule:nonzero;fill:#ffffff;fill-opacity:1;" d="M 51.5 51.335938 L 61.152344 51.335938 L 61.152344 58.335938 L 51.5 58.335938 Z M 51.5 51.335938 "/></g><g clip-rule="nonzero" clip-path="url(#b4917236b5)"><path style=" stroke:none;fill-rule:nonzero;fill:#ffffff;fill-opacity:1;" d="M 49.167969 51.335938 L 52.898438 51.335938 L 52.898438 56 L 49.167969 56 Z M 49.167969 51.335938 "/></g><g clip-rule="nonzero" clip-path="url(#f7b41fca42)"><path style=" stroke:none;fill-rule:nonzero;fill:#ffffff;fill-opacity:1;" d="M 42.167969 51.335938 L 44.5 51.335938 L 44.5 56 L 42.167969 56 Z M 42.167969 51.335938 "/></g><g clip-rule="nonzero" clip-path="url(#462fdceee7)"><path style=" stroke:none;fill-rule:nonzero;fill:#ffffff;fill-opacity:1;" d="M 51.03125 53.671875 L 51.03125 57.808594 L 43.335938 57.808594 L 43.335938 53.671875 Z M 51.03125 53.671875 "/></g><g clip-rule="nonzero" clip-path="url(#d9312a3e9d)"><path style=" stroke:none;fill-rule:nonzero;fill:#ffffff;fill-opacity:1;" d="M 107.5 28 L 116.835938 28 L 116.835938 37.335938 L 107.5 37.335938 Z M 107.5 28 "/></g><g clip-rule="nonzero" clip-path="url(#db97f5e84e)"><path style=" stroke:none;fill-rule:nonzero;fill:#ffffff;fill-opacity:1;" d="M 107.5 74.667969 L 116.835938 74.667969 L 116.835938 84 L 107.5 84 Z M 107.5 74.667969 "/></g></g></svg>